<svg id="SvgjsSvg1001" width="800" height="448" xmlns="http://www.w3.org/2000/svg" version="1.1" xmlns:xlink="http://www.w3.org/1999/xlink" xmlns:svgjs="http://svgjs.com/svgjs"><defs id="SvgjsDefs1002"><marker id="SvgjsMarker1056" markerWidth="14" markerHeight="10" refX="10" refY="5" viewBox="0 0 14 10" orient="auto" markerUnits="userSpaceOnUse" stroke-dasharray="0,0"><path id="SvgjsPath1057" d="M0,0 L14,5 L0,10 L0,0" fill="#323232" stroke="#323232" stroke-width="1"></path></marker><marker id="SvgjsMarker1064" markerWidth="14" markerHeight="10" refX="10" refY="5" viewBox="0 0 14 10" orient="auto" markerUnits="userSpaceOnUse" stroke-dasharray="0,0"><path id="SvgjsPath1065" d="M0,0 L14,5 L0,10 L0,0" fill="#323232" stroke="#323232" stroke-width="1"></path></marker><marker id="SvgjsMarker1072" markerWidth="14" markerHeight="10" refX="10" refY="5" viewBox="0 0 14 10" orient="auto" markerUnits="userSpaceOnUse" stroke-dasharray="0,0"><path id="SvgjsPath1073" d="M0,0 L14,5 L0,10 L0,0" fill="#323232" stroke="#323232" stroke-width="1"></path></marker><marker id="SvgjsMarker1080" markerWidth="14" markerHeight="10" refX="10" refY="5" viewBox="0 0 14 10" orient="auto" markerUnits="userSpaceOnUse" stroke-dasharray="0,0"><path id="SvgjsPath1081" d="M0,0 L14,5 L0,10 L0,0" fill="#323232" stroke="#323232" stroke-width="1"></path></marker></defs><g id="SvgjsG1008" transform="translate(25,25)"><path id="SvgjsPath1009" d="M 0 0L 750 0L 750 398L 0 398Z" stroke="rgba(33,41,48,1)" stroke-width="2" fill="none"></path><path id="SvgjsPath1010" d="M 0 0L 750 0L 750 40L 0 40Z" stroke="rgba(33,41,48,1)" stroke-width="2" fill-opacity="1" fill="#e5f6da"></path><g id="SvgjsG1011"><text id="SvgjsText1012" font-family="微软雅黑" text-anchor="middle" font-size="16px" width="730px" fill="#323232" font-weight="400" align="middle" lineHeight="125%" anchor="middle" family="微软雅黑" size="16px" weight="400" font-style="" opacity="1" y="6" transform="rotate(0)"><tspan id="SvgjsTspan1013" dy="20" x="375"><tspan id="SvgjsTspan1014" style="text-decoration:;">枚举流</tspan></tspan></text></g></g><g id="SvgjsG1015" transform="translate(25,65)"><path id="SvgjsPath1016" d="M 0 0L 250 0L 250 358L 0 358Z" stroke="rgba(33,41,48,1)" stroke-width="2" fill="none"></path><path id="SvgjsPath1017" d="M 0 0L 250 0L 250 30L 0 30Z" stroke="rgba(33,41,48,1)" stroke-width="2" fill-opacity="1" fill="#f5b9b7"></path><g id="SvgjsG1018"><text id="SvgjsText1019" font-family="微软雅黑" text-anchor="middle" font-size="13px" width="230px" fill="#323232" font-weight="400" align="middle" lineHeight="125%" anchor="middle" family="微软雅黑" size="13px" weight="400" font-style="" opacity="1" y="4.375" transform="rotate(0)"><tspan id="SvgjsTspan1020" dy="16" x="125"><tspan id="SvgjsTspan1021" style="text-decoration:;">用户端</tspan></tspan></text></g></g><g id="SvgjsG1022" transform="translate(275,65)"><path id="SvgjsPath1023" d="M 0 0L 250 0L 250 358L 0 358Z" stroke="rgba(33,41,48,1)" stroke-width="2" fill="none"></path><path id="SvgjsPath1024" d="M 0 0L 250 0L 250 30L 0 30Z" stroke="rgba(33,41,48,1)" stroke-width="2" fill-opacity="1" fill="#f8d5b5"></path><g id="SvgjsG1025"><text id="SvgjsText1026" font-family="微软雅黑" text-anchor="middle" font-size="13px" width="230px" fill="#323232" font-weight="400" align="middle" lineHeight="125%" anchor="middle" family="微软雅黑" size="13px" weight="400" font-style="" opacity="1" y="4.375" transform="rotate(0)"><tspan id="SvgjsTspan1027" dy="16" x="125"><tspan id="SvgjsTspan1028" style="text-decoration:;">服务端</tspan></tspan></text></g></g><g id="SvgjsG1029" transform="translate(525,65)"><path id="SvgjsPath1030" d="M 0 0L 250 0L 250 358L 0 358Z" stroke="rgba(33,41,48,1)" stroke-width="2" fill="none"></path><path id="SvgjsPath1031" d="M 0 0L 250 0L 250 30L 0 30Z" stroke="rgba(33,41,48,1)" stroke-width="2" fill-opacity="1" fill="#f6edc1"></path><g id="SvgjsG1032"><text id="SvgjsText1033" font-family="微软雅黑" text-anchor="middle" font-size="13px" width="230px" fill="#323232" font-weight="400" align="middle" lineHeight="125%" anchor="middle" family="微软雅黑" size="13px" weight="400" font-style="" opacity="1" y="4.375" transform="rotate(0)"><tspan id="SvgjsTspan1034" dy="16" x="125"><tspan id="SvgjsTspan1035" style="text-decoration:;">数据端</tspan></tspan></text></g></g><g id="SvgjsG1036" transform="translate(93,225)"><path id="SvgjsPath1037" d="M 0 4Q 0 0 4 0L 92 0Q 96 0 96 4L 96 50Q 96 54 92 54L 4 54Q 0 54 0 50Z" stroke="rgba(33,41,48,1)" stroke-width="2" fill-opacity="1" fill="#f19594"></path><g id="SvgjsG1038"><text id="SvgjsText1039" font-family="微软雅黑" text-anchor="middle" font-size="13px" width="76px" fill="#323232" font-weight="400" align="middle" lineHeight="125%" anchor="middle" family="微软雅黑" size="13px" weight="400" font-style="" opacity="1" y="16.375" transform="rotate(0)"><tspan id="SvgjsTspan1040" dy="16" x="48"><tspan id="SvgjsTspan1041" style="text-decoration:;">枚举值</tspan></tspan></text></g></g><g id="SvgjsG1042" transform="translate(349,225)"><path id="SvgjsPath1043" d="M 0 4Q 0 0 4 0L 92 0Q 96 0 96 4L 96 50Q 96 54 92 54L 4 54Q 0 54 0 50Z" stroke="rgba(33,41,48,1)" stroke-width="2" fill-opacity="1" fill="#f4c18f"></path><g id="SvgjsG1044"><text id="SvgjsText1045" font-family="微软雅黑" text-anchor="middle" font-size="13px" width="76px" fill="#323232" font-weight="400" align="middle" lineHeight="125%" anchor="middle" family="微软雅黑" size="13px" weight="400" font-style="" opacity="1" y="16.375" transform="rotate(0)"><tspan id="SvgjsTspan1046" dy="16" x="48"><tspan id="SvgjsTspan1047" style="text-decoration:;">枚举常量</tspan></tspan></text></g></g><g id="SvgjsG1048" transform="translate(605,225)"><path id="SvgjsPath1049" d="M 0 4Q 0 0 4 0L 92 0Q 96 0 96 4L 96 50Q 96 54 92 54L 4 54Q 0 54 0 50Z" stroke="rgba(33,41,48,1)" stroke-width="2" fill-opacity="1" fill="#f1e4a2"></path><g id="SvgjsG1050"><text id="SvgjsText1051" font-family="微软雅黑" text-anchor="middle" font-size="13px" width="76px" fill="#323232" font-weight="400" align="middle" lineHeight="125%" anchor="middle" family="微软雅黑" size="13px" weight="400" font-style="" opacity="1" y="16.375" transform="rotate(0)"><tspan id="SvgjsTspan1052" dy="16" x="48"><tspan id="SvgjsTspan1053" style="text-decoration:;">枚举值</tspan></tspan></text></g></g><g id="SvgjsG1054"><path id="SvgjsPath1055" d="M141.11827260274464 224.0070188363116C 141.00000000000006 122.60000000000002 397 122.60000000000002 396.5742186301193 221.42526781072172" stroke="#323232" stroke-width="2" fill="none" marker-end="url(#SvgjsMarker1056)"></path><rect id="SvgjsRect1058" width="59" height="16" x="239.461561404108" y="139.6290358308792" fill="#ffffff"></rect><text id="SvgjsText1059" font-family="微软雅黑" text-anchor="middle" font-size="13px" width="59px" fill="#323232" font-weight="400" align="top" lineHeight="16px" anchor="middle" family="微软雅黑" size="13px" weight="400" font-style="" opacity="1" y="137.0040358308792" transform="rotate(0)"><tspan id="SvgjsTspan1060" dy="16" x="268.961561404108"><tspan id="SvgjsTspan1061" style="text-decoration:;">Converter</tspan></tspan></text></g><g id="SvgjsG1062"><path id="SvgjsPath1063" d="M397.1182726027447 224.0070188363116C 397 122.60000000000002 653 122.60000000000002 652.5742186301193 221.42526781072172" stroke="#323232" stroke-width="2" fill="none" marker-end="url(#SvgjsMarker1064)"></path><rect id="SvgjsRect1066" width="76" height="16" x="486.961561404108" y="139.6290358308792" fill="#ffffff"></rect><text id="SvgjsText1067" font-family="微软雅黑" text-anchor="middle" font-size="13px" width="76px" fill="#323232" font-weight="400" align="top" lineHeight="16px" anchor="middle" family="微软雅黑" size="13px" weight="400" font-style="" opacity="1" y="137.0040358308792" transform="rotate(0)"><tspan id="SvgjsTspan1068" dy="16" x="524.961561404108"><tspan id="SvgjsTspan1069" style="text-decoration:;">TypeHandler</tspan></tspan></text></g><g id="SvgjsG1070"><path id="SvgjsPath1071" d="M652.8817273972553 279.9929811636884C 653 381.4 397 381.4 397.4257813698807 282.5747321892783" stroke="#323232" stroke-width="2" fill="none" marker-end="url(#SvgjsMarker1072)"></path><rect id="SvgjsRect1074" width="76" height="16" x="487.038438595892" y="348.3709641691208" fill="#ffffff"></rect><text id="SvgjsText1075" font-family="微软雅黑" text-anchor="middle" font-size="13px" width="76px" fill="#323232" font-weight="400" align="top" lineHeight="16px" anchor="middle" family="微软雅黑" size="13px" weight="400" font-style="" opacity="1" y="345.7459641691208" transform="rotate(0)"><tspan id="SvgjsTspan1076" dy="16" x="525.038438595892"><tspan id="SvgjsTspan1077" style="text-decoration:;">TypeHandler</tspan></tspan></text></g><g id="SvgjsG1078"><path id="SvgjsPath1079" d="M396.8817273972553 279.9929811636884C 397 381.4 141 381.4 141.42578136988072 282.5747321892783" stroke="#323232" stroke-width="2" fill="none" marker-end="url(#SvgjsMarker1080)"></path><rect id="SvgjsRect1082" width="84" height="16" x="227.038438595892" y="348.3709641691208" fill="#ffffff"></rect><text id="SvgjsText1083" font-family="微软雅黑" text-anchor="middle" font-size="13px" width="84px" fill="#323232" font-weight="400" align="top" lineHeight="16px" anchor="middle" family="微软雅黑" size="13px" weight="400" font-style="" opacity="1" y="345.7459641691208" transform="rotate(0)"><tspan id="SvgjsTspan1084" dy="16" x="269.038438595892"><tspan id="SvgjsTspan1085" style="text-decoration:;">JsonSerializer</tspan></tspan></text></g></svg>